#!OML:ASF F:\VICON\USERDATA\INSTALL\rory3\rory3.ASF
:FULLY-SPECIFIED
:DEGREES
2156
root 4.03854 17.9607 -0.734655 900.035 21.4601 -182.678
lowerback 13.8733 7.39256 6.22202
upperback 1.19159 10.7845 -2.20401
thorax -4.84254 5.25226 -7.57868
lowerneck -18.1852 16.6642 -4.45458
upperneck 45.6851 22.3593 3.57861
head 19.6587 6.84838 6.43007
rclavicle -8.34896e-015 1.59028e-015
rhumerus -43.2065 -10.7499 -73.7144
rradius 40.4377
rwrist -0.289462
rhand -15.2342 7.45922
rfingers 7.12502
rthumb 10.9389 -22.2358
lclavicle -8.34896e-015 1.59028e-015
lhumerus -34.9829 16.0167 77.7692
lradius 28.8083
lwrist -8.49444
lhand -18.2882 27.0148
lfingers 7.12502
lthumb 7.99221 56.8437
rfemur -20.7678 -12.0471 20.5688
rtibia 31.3369
rfoot -9.02199 -4.33377
rtoes 10.7745
lfemur 0.992273 -13.6558 -20.8911
ltibia 32.0297
lfoot -1.99012 -19.1554
ltoes -6.22032
2157
root 3.96189 17.9488 -0.656224 900.127 21.0288 -182.722
lowerback 13.8568 7.38516 6.04985
upperback 1.16459 10.7467 -2.21037
thorax -4.89855 5.23228 -7.48977
lowerneck -18.176 16.6751 -4.36988
upperneck 45.6955 22.3601 3.57635
head 19.6794 6.86646 6.42336
rclavicle -9.88457e-014 2.50469e-014
rhumerus -43.3482 -10.6669 -73.5852
rradius 40.9463
rwrist -0.553129
rhand -15.2416 7.64376
rfingers 7.12502
rthumb 10.9318 -22.0517
lclavicle -9.88457e-014 2.50469e-014
lhumerus -35.0368 15.8572 77.9028
lradius 28.831
lwrist -8.46718
lhand -18.3234 26.9889
lfingers 7.12502
lthumb 7.95818 56.8191
rfemur -21.2677 -12.3493 20.4323
rtibia 31.3744
rfoot -8.68107 -4.50531
rtoes 11.7673
lfemur 1.58463 -13.616 -21.0983
ltibia 30.7987
lfoot -1.50593 -19.8396
ltoes -2.29661
2158
root 3.88108 17.9413 -0.576099 900.218 20.6446 -182.816
lowerback 13.8599 7.39276 5.86913
upperback 1.15904 10.7296 -2.21217
thorax -4.94133 5.2247 -7.39503
lowerneck -18.0941 16.643 -4.37089
upperneck 45.4696 22.3899 3.4394
head 19.5404 6.90738 6.34022
rclavicle 7.41964e-014 -2.38542e-014
rhumerus -43.4063 -10.562 -73.4104
rradius 41.3776
rwrist -0.892367
rhand -15.3119 7.8604
rfingers 7.12502
rthumb 10.8639 -21.8386
lclavicle 7.41964e-014 -2.38542e-014
lhumerus -35.0322 15.6496 78.1699
lradius 29.0055
lwrist -8.25934
lhand -18.2387 26.8412
lfingers 7.12502
lthumb 8.03995 56.6683
rfemur -21.8052 -12.7339 20.2547
rtibia 31.4235
rfoot -8.34625 -4.55203
rtoes 12.6003
lfemur 2.14617 -13.527 -21.3835
ltibia 29.5166
lfoot -1.68201 -20.35
ltoes 3.80884
2159
root 3.79553 17.9346 -0.491319 900.341 20.2925 -182.761
lowerback 13.8053 7.3694 5.89968
upperback 1.26284 10.7056 -2.19389
thorax -4.80276 5.22605 -7.36869
lowerneck -18.1028 16.5899 -4.35249
upperneck 45.1858 22.4567 3.17771
head 19.4229 6.95087 6.21707
rclavicle 1.92324e-014 -7.55382e-015
rhumerus -43.1894 -10.3657 -73.3494
rradius 41.7373
rwrist -1.31179
rhand -15.5964 8.29993
rfingers 7.12502
rthumb 10.5895 -21.4133
lclavicle 1.92324e-014 -7.55382e-015
lhumerus -34.7445 15.4392 78.5192
lradius 29.1048
lwrist -7.99325
lhand -18.0569 27.0514
lfingers 7.12502
lthumb 8.21542 56.8717
rfemur -22.3528 -13.1945 20.2215
rtibia 31.5074
rfoot -8.00901 -4.38781
rtoes 12.3339
lfemur 2.68555 -13.3931 -21.5177
ltibia 28.1785
lfoot -2.98053 -19.8864
ltoes 5.98655
2160
root 3.70793 17.9264 -0.406246 900.485 19.9699 -182.604
lowerback 13.7868 7.33851 6.05162
upperback 1.3241 10.6901 -2.19241
thorax -4.70269 5.22514 -7.43611
lowerneck -18.0774 16.5804 -4.1836
upperneck 45.1113 22.4639 3.01186
head 19.4402 6.96946 6.12425
rclavicle 2.26813e-013 -3.37934e-014
rhumerus -43.0567 -10.2963 -73.3069
rradius 42.1366
rwrist -1.41221
rhand -15.7555 8.49915
rfingers 7.12502
rthumb 10.436 -21.2218
lclavicle 2.26813e-013 -3.37934e-014
lhumerus -34.5044 15.1061 78.7993
lradius 29.1233
lwrist -7.68224
lhand -18.3373 26.8357
lfingers 7.12502
lthumb 7.94482 56.6664
rfemur -22.8818 -13.6791 20.284
rtibia 31.5846
rfoot -7.71352 -4.18328
rtoes 11.8963
lfemur 3.18887 -13.0559 -21.5503
ltibia 26.8189
lfoot -5.23524 -18.4498
ltoes 3.51657
2161
root 3.62159 17.9135 -0.316389 900.599 19.6261 -182.621
lowerback 13.843 7.30974 5.93928
upperback 1.32333 10.639 -2.20068
thorax -4.76105 5.19885 -7.3888
lowerneck -18.0376 16.5997 -4.05744
upperneck 45.0949 22.4857 2.93578
head 19.4597 6.99323 6.07887
rclavicle -4.34344e-014 5.96354e-015
rhumerus -43.0206 -10.2427 -73.1827
rradius 42.5545
rwrist -1.2482
rhand -15.6277 8.27679
rfingers 7.12502
rthumb 10.5593 -21.438
lclavicle -4.34344e-014 5.96354e-015
lhumerus -34.4475 14.7379 79.0825
lradius 29.3264
lwrist -7.40081
lhand -18.7412 26.7421
lfingers 7.12502
lthumb 7.55494 56.5872
rfemur -23.4801 -14.1632 20.2016
rtibia 31.6393
rfoot -7.33719 -4.10944
rtoes 12.1044
lfemur 3.54072 -12.6424 -21.7571
ltibia 25.5151
lfoot -7.17048 -17.1707
ltoes 2.57915
2162
root 3.53223 17.9054 -0.227784 900.71 19.3803 -182.743
lowerback 13.8793 7.31692 5.70605
upperback 1.3103 10.6149 -2.20285
thorax -4.84008 5.18605 -7.27205
lowerneck -18.0998 16.6421 -4.05763
upperneck 45.2322 22.5318 3.02429
head 19.5411 7.00667 6.14745
rclavicle -3.77691e-015 -6.36111e-015
rhumerus -42.9659 -10.0839 -73.0357
rradius 42.9513
rwrist -1.11939
rhand -15.3945 7.94328
rfingers 7.12502
rthumb 10.7842 -21.7599
lclavicle -3.77691e-015 -6.36111e-015
lhumerus -34.3927 14.5719 79.3584
lradius 29.4987
lwrist -7.28587
lhand -18.94 27.0101
lfingers 7.12502
lthumb 7.36304 56.862
rfemur -24.1699 -14.5997 20.041
rtibia 31.7247
rfoot -6.93784 -3.98843
rtoes 11.5266
lfemur 3.76408 -12.3338 -22.1278
ltibia 24.2622
lfoot -8.21031 -16.4225
ltoes 2.53546
